<?xml version="1.0" encoding="utf-8"?>
<!-- Generator: Adobe Illustrator 18.1.0, SVG Export Plug-In . SVG Version: 6.00 Build 0)  -->
<!DOCTYPE svg PUBLIC "-//W3C//DTD SVG 1.1//EN" "http://www.w3.org/Graphics/SVG/1.1/DTD/svg11.dtd">
<svg version="1.1" xmlns="http://www.w3.org/2000/svg" xmlns:xlink="http://www.w3.org/1999/xlink" x="0px" y="0px"
	 viewBox="0 0 17.7 18.5" enable-background="new 0 0 17.7 18.5" xml:space="preserve">
<g id="Background" display="none">
	<rect x="0" y="0" display="inline" fill="#9E1F63" width="17.7" height="18.5"/>
</g>
<g id="Layer_1">
	<path fill="#FFFFFF" d="M16.8,0h-16C0.4,0,0,0.4,0,0.9v11.6c0,0.5,0.4,0.9,0.9,0.9H3l0.6,5.2l4.7-5.2h8.4c0.5,0,0.9-0.4,0.9-0.9
		V0.9C17.7,0.4,17.3,0,16.8,0z M14.6,10.3h-12v-1h12V10.3z M14.6,7.2h-12V6.3h12V7.2z M14.6,4.3h-12v-1h12V4.3z"/>
</g>
<g id="Layer_2" display="none">
	<rect x="2.6" y="3.3" display="inline" fill="#231F20" width="12" height="1"/>
	<rect x="2.6" y="6.3" display="inline" fill="#231F20" width="12" height="0.9"/>
	<rect x="2.6" y="9.3" display="inline" fill="#231F20" width="12" height="1"/>
	<path display="inline" fill="#FFFFFF" d="M16.8,0h-16C0.4,0,0,0.4,0,0.9v11.6c0,0.5,0.4,0.9,0.9,0.9H3l0.6,5.2l4.7-5.2h8.4
		c0.5,0,0.9-0.4,0.9-0.9V0.9C17.7,0.4,17.3,0,16.8,0z"/>
</g>
</svg>
